<svg width="930" height="349" viewBox="0 0 930 349" fill="none" xmlns="http://www.w3.org/2000/svg">
<path d="M87.6008 68.1002C58.7008 68.1002 29.8008 68.1002 0.900757 68.2002C0.700757 91.0002 0.500781 113.506 0.300781 136.306C8.90078 136.306 17.2008 136.306 25.8008 136.306C27.8008 136.306 30.8008 136.306 32.8008 136.306C32.8008 127.306 32.8008 127.306 32.8008 119.306V101.306C40.1008 101.406 50.5008 101.206 57.8008 101.306C73.3008 84.8062 73.3008 84.8062 87.6008 68.1002Z" fill="white"/>
<path d="M77.301 276.306C106.201 276.471 135.1 276.636 164 276.701C164.33 253.902 164.659 231.398 164.989 208.599C156.389 208.55 148.09 208.503 139.49 208.454C137.49 208.442 134.49 208.425 132.49 208.414C132.438 217.414 132.438 217.414 132.393 225.413L132.29 243.413C124.991 243.271 114.59 243.412 107.29 243.27C91.6963 259.681 91.6963 259.681 77.301 276.306Z" fill="white"/>
<path d="M137.6 67.9L4.89996 242.2L0 252.1V277.1H29.2L164.5 95.2V67.9H137.6Z" fill="#ED7F18"/>
<path d="M236.947 280.037C221.635 280.037 209.549 274.785 200.691 264.282C191.959 253.652 187.593 240.68 187.593 225.368V120.965C187.593 104.767 191.959 91.6059 200.691 81.482C209.423 71.3581 221.635 66.2961 237.327 66.2961C247.577 66.2961 256.372 68.6373 263.712 73.3196C271.178 78.0019 276.873 84.3926 280.796 92.4917C284.719 100.464 286.681 109.576 286.681 119.826V180.19H223.28V225.368C223.28 230.557 224.419 235.365 226.697 239.795C229.101 244.097 232.644 246.249 237.327 246.249C242.262 246.249 245.742 244.224 247.767 240.174C249.918 236.125 250.994 231.189 250.994 225.368V202.589H286.681V226.507C286.681 242.579 282.315 255.55 273.583 265.421C264.978 275.165 252.766 280.037 236.947 280.037ZM223.28 150.198H250.994V120.965C250.994 115.271 249.982 110.335 247.957 106.159C246.059 101.856 242.515 99.705 237.327 99.705C232.518 99.705 228.974 101.92 226.697 106.349C224.419 110.651 223.28 115.524 223.28 120.965V150.198ZM302.94 277V69.3333H341.285V92.4917C342.044 87.4298 344.385 82.9373 348.308 79.0143C352.231 75.0913 356.977 71.9908 362.545 69.7129C368.239 67.4351 373.934 66.2961 379.629 66.2961V108.817C377.984 108.184 376.212 107.804 374.314 107.678C372.542 107.424 370.77 107.298 368.999 107.298C360.647 107.298 353.939 109.576 348.878 114.132C343.816 118.687 341.285 124.888 341.285 132.734V277H302.94ZM438.815 279.658C423.503 279.658 411.481 274.532 402.749 264.282C394.017 253.905 389.651 240.807 389.651 224.988V120.965C389.651 105.147 394.017 92.1121 402.749 81.8616C411.481 71.4846 423.503 66.2961 438.815 66.2961C454.001 66.2961 465.96 71.4846 474.692 81.8616C483.55 92.1121 487.979 105.147 487.979 120.965V224.988C487.979 240.807 483.55 253.905 474.692 264.282C465.96 274.532 454.001 279.658 438.815 279.658ZM438.815 246.249C443.751 246.249 447.167 244.287 449.066 240.364C450.964 236.315 451.913 231.189 451.913 224.988V120.965C451.913 114.638 450.964 109.513 449.066 105.59C447.167 101.667 443.751 99.705 438.815 99.705C433.88 99.705 430.463 101.667 428.565 105.59C426.666 109.513 425.717 114.638 425.717 120.965V224.988C425.717 231.316 426.666 236.441 428.565 240.364C430.463 244.287 433.88 246.249 438.815 246.249Z" fill="white"/>
<path d="M558.953 280.037C546.93 280.037 537.756 277.38 531.428 272.065C525.101 266.75 520.735 259.157 518.33 249.286C516.053 239.415 514.914 227.646 514.914 213.979V103.881H495.552V69.3333H514.914V18.081H553.258V69.3333H579.643V103.881H553.258V219.484C553.258 227.583 554.46 233.594 556.865 237.517C559.269 241.313 563.192 243.211 568.634 243.211C571.038 243.211 573.126 243.022 574.898 242.642C576.796 242.262 578.315 241.819 579.454 241.313V276.431C576.923 277.443 574.138 278.265 571.101 278.898C568.191 279.658 564.141 280.037 558.953 280.037ZM638.468 280.037C623.155 280.037 611.07 274.785 602.212 264.282C593.48 253.652 589.114 240.68 589.114 225.368V120.965C589.114 104.767 593.48 91.6059 602.212 81.482C610.943 71.3581 623.155 66.2961 638.847 66.2961C649.098 66.2961 657.893 68.6373 665.233 73.3196C672.699 78.0019 678.394 84.3926 682.317 92.4917C686.24 100.464 688.202 109.576 688.202 119.826V180.19H624.801V225.368C624.801 230.557 625.939 235.365 628.217 239.795C630.622 244.097 634.165 246.249 638.847 246.249C643.783 246.249 647.263 244.224 649.288 240.174C651.439 236.125 652.515 231.189 652.515 225.368V202.589H688.202V226.507C688.202 242.579 683.836 255.55 675.104 265.421C666.498 275.165 654.286 280.037 638.468 280.037ZM624.801 150.198H652.515V120.965C652.515 115.271 651.502 110.335 649.478 106.159C647.579 101.856 644.036 99.705 638.847 99.705C634.039 99.705 630.495 101.92 628.217 106.349C625.939 110.651 624.801 115.524 624.801 120.965V150.198ZM763.289 348.374V263.333C758.48 267.762 753.544 271.685 748.482 275.102C743.42 278.392 738.232 280.037 732.917 280.037C726.589 280.037 721.211 278.076 716.782 274.153C712.353 270.23 708.999 265.168 706.721 258.967C704.443 252.639 703.304 246.122 703.304 239.415V106.918C703.304 100.211 704.38 93.7572 706.531 87.5563C708.809 81.3554 712.163 76.2935 716.592 72.3704C721.021 68.3209 726.463 66.2961 732.917 66.2961C737.726 66.2961 742.788 67.9412 748.103 71.2315C753.418 74.5218 758.48 78.4448 763.289 83.0006V69.3333H801.633V348.374H763.289ZM750.001 243.971C752.912 243.971 755.822 242.642 758.733 239.984C761.77 237.327 763.289 234.48 763.289 231.442V114.891C763.289 111.221 761.77 108.247 758.733 105.969C755.822 103.565 752.912 102.363 750.001 102.363C747.217 102.363 745.129 103.565 743.737 105.969C742.345 108.374 741.649 111.98 741.649 116.789V233.341C741.649 236.884 742.345 239.542 743.737 241.313C745.129 243.085 747.217 243.971 750.001 243.971Z" fill="#ED7F18"/>
</svg>
